# Blender3D v247 OBJ File: 
# www.blender3d.org
v -1.875402 0.042968 1.875404
v 1.875402 0.042968 1.875404
v -1.875402 0.042968 -1.875404
v 1.875402 0.042968 -1.875404
v -0.042888 -0.008454 0.055141
v -0.006711 0.976816 0.005150
v -0.042888 -0.008454 -0.044841
v 0.043698 -0.008454 0.005150
v 0.002749 0.192390 0.069530
v 0.002749 0.192390 -0.009716
v 0.071516 0.189676 0.029907
v -0.010666 0.457800 0.052324
v -0.010666 0.457800 -0.000763
v 0.035308 0.457800 0.025781
v -0.061321 0.761626 -0.003256
v -0.061321 0.761626 -0.027706
v -0.040146 0.761626 -0.015481
v -0.265804 1.142073 -0.275976
v -0.594314 1.317852 -0.581522
v -0.070109 0.833852 0.109836
v -0.633340 1.203251 -0.415024
v 0.189246 0.831686 -0.271602
v -0.581801 1.256775 -0.661423
v -0.397225 1.111970 -0.114163
v -0.137870 1.109804 -0.495601
v 0.078549 0.863811 -0.077328
v -0.292722 1.133787 0.123086
v -0.744846 1.300357 0.119455
v 0.117913 0.832760 0.274445
v -0.659324 1.186347 0.268001
v 0.053092 0.832760 -0.182243
v -0.788102 1.238899 0.051464
v -0.280411 1.102338 0.330982
v -0.345232 1.102338 -0.125705
v 0.101293 0.864209 0.036197
v 0.398524 1.109846 -0.202372
v 0.800871 1.249019 -0.428031
v -0.047194 0.832717 -0.120623
v 0.647799 1.139084 -0.510863
v 0.234588 0.832717 0.244567
v 0.869053 1.185658 -0.387937
v 0.283673 1.077423 -0.375921
v 0.565454 1.077423 -0.010730
v 0.086385 0.865140 0.077196
v 0.381894 0.967867 0.405850
v 0.623221 0.952898 0.822638
v 0.255031 0.834980 -0.092542
v 0.685410 0.871498 0.644074
v -0.108033 0.834980 0.191974
v 0.570108 0.883420 0.873850
v 0.547650 0.932314 0.280862
v 0.184587 0.932314 0.565378
v 0.065145 0.870533 0.051356
v 0.379954 0.815080 0.345807
v 0.851683 0.805569 0.628003
v -0.020621 0.656007 -0.080274
v 0.816031 0.711080 0.415941
v -0.225234 0.656007 0.404616
v 0.828075 0.726423 0.708934
v 0.476607 0.774580 0.129546
v 0.271994 0.774580 0.614435
v -0.130872 0.696507 0.168214
v 0.141335 0.875742 -0.851971
v 0.563371 0.878049 -1.491922
v -0.474713 0.638692 -0.324301
v 0.266955 0.743028 -1.457714
v 0.188219 0.638692 -0.009581
v 0.675634 0.767992 -1.456122
v -0.153507 0.819424 -1.000897
v 0.509425 0.819424 -0.686177
v -0.135812 0.695010 -0.154458
v -0.729917 0.980056 -0.410261
v -1.324358 1.109917 -0.764243
v -0.266056 0.641356 0.111564
v -1.303069 0.961432 -0.503577
v -0.006832 0.641356 -0.510453
v -1.313381 1.013227 -0.875831
v -0.862053 0.930578 -0.136817
v -0.602830 0.930578 -0.758834
v -0.116691 0.690834 -0.203220
v -0.140807 0.871896 0.470371
v -0.253241 0.885189 1.165144
v 0.176326 0.643340 -0.199983
v -0.017921 0.758893 1.026867
v -0.497401 0.643340 -0.213888
v -0.360776 0.784372 1.179060
v 0.162191 0.820306 0.484881
v -0.511536 0.820306 0.470976
v -0.171449 0.694929 -0.215418
v 0.445315 0.678434 -0.599456
v 1.134047 0.655571 -0.917949
v -0.354742 0.468356 -0.472441
v 0.862977 0.527170 -1.041346
v 0.039248 0.468356 0.138217
v 1.206819 0.546119 -0.827287
v 0.273183 0.622425 -0.877573
v 0.667174 0.622425 -0.266914
v -0.156426 0.524364 -0.153740
v -0.566384 0.732649 -1.016652
v -0.787757 0.720706 -1.941684
v -0.609608 0.452989 -0.006943
v -1.007314 0.556267 -1.641832
v 0.237816 0.452989 -0.340203
v -0.659308 0.583849 -2.010963
v -0.950983 0.662617 -0.875005
v -0.103560 0.662617 -1.208265
v -0.168687 0.523021 -0.170738
v -0.827915 0.584820 0.250444
v -1.639682 0.448922 0.368527
v 0.074605 0.466399 0.358265
v -1.376488 0.333356 0.577258
v -0.150065 0.466399 -0.405347
v -1.672399 0.328364 0.246131
v -0.725265 0.523129 0.593603
v -0.949934 0.523129 -0.170010
v -0.042977 0.528091 -0.035644
v -0.795949 0.620563 0.622518
v -1.660191 0.503079 1.102855
v 0.239352 0.401943 0.330634
v -1.289883 0.321670 1.207387
v -0.343280 0.509759 -0.416007
v -1.763316 0.376744 0.971461
v -0.539103 0.498621 0.952053
v -1.121735 0.606437 0.205412
v -0.056216 0.531051 -0.048524
v 0.587733 0.723219 0.614416
v 1.233657 0.730020 1.137975
v 0.084766 0.461907 -0.105953
v 1.228888 0.582675 0.814769
v -0.325405 0.461907 0.576205
v 1.183618 0.610736 1.255673
v 0.780096 0.662180 0.312138
v 0.369924 0.662180 0.994296
v -0.134857 0.522946 0.241661
v -0.232670 0.351527 0.952141
v -0.633371 0.045301 1.635615
v 0.395968 0.379745 0.258758
v -0.308375 -0.060871 1.513986
v -0.367399 0.487119 0.000113
v -0.759700 -0.055729 1.559783
v 0.108346 0.242769 1.050783
v -0.655021 0.350143 0.792137
v 0.004218 0.495640 0.142926
v 0.374774 0.405556 1.073766
v 0.611835 0.065997 1.978060
v 0.442105 0.519726 -0.014628
v 0.855202 0.040902 1.630632
v -0.437812 0.312027 0.283953
v 0.492433 -0.105353 1.990097
v 0.781270 0.428246 0.921257
v -0.098646 0.220547 1.219838
v -0.022872 0.483231 0.157725
v -1.113012 0.426007 -0.162127
v -2.158874 0.088134 -0.697600
v -0.102979 0.389917 0.729484
v -1.998467 -0.054282 -0.221350
v 0.267416 0.412497 -0.380497
v -2.074374 -0.083674 -0.869255
v -1.266604 0.326090 0.339889
v -0.896209 0.348670 -0.770092
v 0.075230 0.491334 0.153698
v 0.330833 0.378731 -0.774592
v 0.648899 0.037119 -1.557583
v -0.310777 0.510951 -0.012593
v 0.280641 0.017157 -1.432459
v 0.501947 0.335739 0.252456
v 0.744436 -0.116987 -1.495268
v -0.052168 0.392981 -0.883555
v 0.760556 0.217769 -0.618505
v 0.126238 0.485056 0.113984
v 1.096898 0.386651 -0.181245
v 2.026505 0.071269 -0.021215
v 0.088095 0.388261 -0.610758
v 1.774818 -0.047330 -0.342388
v 0.088095 0.451960 0.339235
v 1.998255 -0.059743 0.139410
v 1.082442 0.285759 -0.603885
v 1.082443 0.349459 0.346108
v 0.102550 0.493386 -0.124980
vt 0.949525 0.938821
vt 0.949525 0.961390
vt 0.938096 0.971394
vt 0.966747 0.950105
vt 0.959780 0.957156
vt 0.938096 0.942919
vt 0.946166 0.943721
vt 0.946166 0.958840
vt 0.957679 0.951281
vt 0.933480 0.959550
vt 0.933480 0.966514
vt 0.938783 0.963032
vt 0.947156 0.957156
vt 0.505046 0.782576
vt 0.000000 0.750463
vt 0.000000 0.516820
vt 0.505046 0.516820
vt 1.000000 0.712254
vt 0.884372 0.878903
vt 0.505046 1.000000
vt 0.000000 1.000000
vt 1.000000 0.635372
vt 0.874525 0.615727
vt 0.874525 0.491202
vt 0.997580 0.491202
vt 0.997580 0.615727
vn -0.506394 0.041780 0.861263
vn -0.572558 0.132023 -0.809137
vn -0.471725 0.254799 -0.844081
vn 0.996155 -0.006989 0.087008
vn 0.990417 -0.137425 -0.013001
vn -0.489364 0.048769 0.870693
vn -0.491775 0.054201 0.869015
vn -0.518693 -0.079470 -0.851222
vn 0.981628 0.188849 0.026276
vn -0.504685 0.079653 0.859615
vn -0.609241 0.049318 -0.791436
vn 0.989837 0.047243 0.134068
vn 0.239082 0.970519 -0.029756
vn 0.388562 0.878140 0.279000
vn 0.468795 0.818354 0.332377
vn 0.551836 0.811731 0.191168
vn 0.455519 0.881893 -0.121403
vn 0.241066 0.963317 0.117862
vn -0.308084 0.815851 0.489334
vn 0.066378 0.903348 0.423719
vn 0.388714 0.810327 0.438429
vn 0.435072 0.746910 -0.502792
vn 0.457045 0.888089 -0.048341
vn 0.553514 0.830409 -0.063295
vn 0.520035 0.824305 -0.223670
vn 0.237037 0.889950 -0.389569
vn 0.237800 0.968932 -0.067629
vn 0.084658 0.813379 0.575518
vn 0.315653 0.907926 0.275674
vn 0.565844 0.821619 0.068972
vn -0.031892 0.751457 -0.658956
vn -0.330363 0.914304 0.234230
vn -0.409528 0.862606 0.296884
vn -0.301553 0.855892 0.420087
vn 0.029206 0.905850 0.422559
vn -0.126591 0.981994 0.140049
vn -0.318674 0.812067 -0.488845
vn -0.366649 0.922849 -0.117862
vn -0.485946 0.853450 0.188238
vn 0.389111 0.753777 0.529466
vn -0.042116 0.995849 -0.080294
vn -0.112308 0.979369 -0.167821
vn -0.236366 0.969726 -0.061068
vn -0.234962 0.933287 0.271462
vn 0.059816 0.989593 0.130741
vn 0.645985 0.754021 -0.118748
vn 0.305277 0.944029 -0.124821
vn -0.006256 0.968810 -0.247627
vn -0.376537 0.718680 0.584521
vn -0.088565 0.994537 -0.055116
vn -0.192175 0.976470 -0.097507
vn -0.248695 0.966948 0.056093
vn -0.085635 0.934172 0.346355
vn 0.103092 0.991455 0.079897
vn 0.497452 0.758202 -0.421461
vn 0.194220 0.945189 -0.262429
vn -0.138066 0.965972 -0.218696
vn -0.054720 0.721793 0.689901
vn -0.067690 0.992218 0.104465
vn -0.114414 0.971862 0.205756
vn 0.036622 0.962493 0.268807
vn 0.334025 0.935118 0.118076
vn 0.075625 0.993805 -0.081088
vn -0.405896 0.764061 -0.501389
vn -0.261971 0.946562 -0.188025
vn -0.233009 0.961394 0.146184
vn 0.680471 0.726127 0.098392
vn 0.273568 0.952757 0.131718
vn 0.371838 0.912320 0.171331
vn 0.426008 0.904538 0.016785
vn 0.260567 0.925962 -0.273171
vn 0.085147 0.996338 -0.000855
vn -0.347514 0.802240 0.485366
vn -0.014069 0.941069 0.337870
vn 0.316324 0.902585 0.291940
vn 0.191382 0.751000 -0.631916
vn 0.019227 0.990112 -0.138920
vn 0.020264 0.967986 -0.250130
vn -0.143315 0.958708 -0.245521
vn -0.352763 0.935575 0.014313
vn -0.035371 0.995392 0.089022
vn 0.576067 0.768456 0.278512
vn 0.316355 0.947356 0.048860
vn 0.152867 0.957549 -0.244270
vn -0.660726 0.729270 0.177679
vn -0.084597 0.995788 0.035096
vn -0.178198 0.979186 0.096957
vn -0.083224 0.969543 0.230262
vn 0.248054 0.933378 0.259316
vn 0.134861 0.989715 -0.047090
vn -0.059694 0.754326 -0.653737
vn -0.097110 0.944121 -0.314951
vn -0.247932 0.968627 -0.015931
vn 0.546983 0.718925 0.428846
vn 0.024201 0.994018 0.106296
vn 0.066317 0.975433 0.209937
vn 0.215644 0.965941 0.142949
vn 0.309183 0.934416 -0.176672
vn -0.013153 0.992035 -0.125156
vn -0.647786 0.759606 -0.057741
vn -0.321787 0.945524 0.048769
vn -0.058168 0.964934 0.255898
vn 0.532884 0.722831 -0.439863
vn -0.038606 0.998840 0.028413
vn 0.069765 0.997528 -0.004761
vn 0.017731 0.986969 -0.159886
vn -0.284799 0.915677 -0.283517
vn -0.269631 0.961913 0.044343
vn -0.222694 0.706351 0.671896
vn -0.117405 0.923429 0.365307
vn 0.106113 0.986724 0.122837
vn -0.494400 0.681692 -0.539293
vn 0.067202 0.991455 0.111576
vn 0.155461 0.986999 0.040498
vn 0.049684 0.995178 -0.084506
vn -0.282327 0.954924 -0.091678
vn -0.144414 0.967071 0.209510
vn 0.104099 0.647511 0.754875
vn 0.110019 0.887539 0.447371
vn 0.234657 0.961272 0.144383
vn -0.591449 0.760735 -0.267251
vn -0.101749 0.991546 -0.080264
vn -0.197913 0.970641 -0.136631
vn -0.275399 0.961272 0.007508
vn -0.154424 0.935301 0.318339
vn 0.068819 0.994354 0.080538
vn 0.535325 0.765526 -0.356883
vn 0.208563 0.946837 -0.244850
vn -0.126926 0.960173 -0.248787
vn -0.167821 0.727165 0.665609
vn 0.048372 0.951537 0.303690
vn 0.085788 0.976104 0.199500
vn -0.070284 0.986114 0.150395
vn -0.352367 0.886410 0.300088
vn -0.077364 0.871273 0.484603
vn 0.442824 0.513474 0.734977
vn 0.269051 0.800378 0.535691
vn 0.209449 0.947905 0.239998
vn -0.693533 0.671651 0.260537
vn -0.120975 0.958525 0.258003
vn -0.161657 0.974822 0.153417
vn -0.309000 0.928007 0.208014
vn -0.397229 0.774682 0.491958
vn -0.082278 0.876522 0.474227
vn 0.571490 0.743797 0.346568
vn 0.228401 0.924711 0.304483
vn -0.036988 0.993164 0.110477
vn -0.597919 0.462630 0.654561
vn -0.166997 0.985778 -0.018403
vn -0.059725 0.998077 0.016297
vn -0.012513 0.989990 -0.140477
vn -0.179724 0.892605 -0.413404
vn -0.359569 0.923063 -0.136570
vn -0.648030 0.641682 0.410138
vn -0.413831 0.884701 0.214454
vn -0.101535 0.984619 0.141972
vn -0.176672 0.650807 -0.738365
vn 0.245064 0.953551 -0.175024
vn 0.215735 0.974090 -0.067415
vn 0.367046 0.929929 -0.022217
vn 0.607257 0.770867 -0.192236
vn 0.342540 0.864132 -0.368633
vn -0.258889 0.716605 -0.647603
vn -0.008545 0.908414 -0.417951
vn 0.089785 0.990143 -0.107425
vn 0.866970 0.460005 -0.191565
vn 0.214270 0.973327 -0.081668
vn 0.102329 0.991394 -0.081606
vn 0.106571 0.990875 0.082247
vn 0.346110 0.891110 0.293435
vn 0.430830 0.902005 -0.026826
vn 0.517533 0.587146 -0.622395
vn 0.369640 0.850093 -0.375011
vn 0.101627 0.971679 -0.213294
vn 0.433302 0.659536 0.614154
vn 0.000000 1.000000 0.000000
usemtl (null)
s 1
f 9/1/1 10/2/2 7/3/3
f 10/2/2 11/4/4 8/5/5
f 11/4/4 9/1/1 5/6/6
f 12/7/7 13/8/8 10/2/2
f 13/8/8 14/9/9 11/4/4
f 14/9/9 12/7/7 9/1/1
f 15/10/10 16/11/11 13/8/8
f 16/11/11 17/12/12 14/9/9
f 17/12/12 15/10/10 12/7/7
f 15/10/10 6/13/13 16/11/11
f 16/11/11 6/13/13 17/12/12
f 17/12/12 6/13/13 15/10/10
f 5/6/6 9/1/1 7/3/3
f 7/3/3 10/2/2 8/5/5
f 8/5/5 11/4/4 5/6/6
f 9/1/1 12/7/7 10/2/2
f 10/2/2 13/8/8 11/4/4
f 11/4/4 14/9/9 9/1/1
f 12/7/7 15/10/10 13/8/8
f 13/8/8 16/11/11 14/9/9
f 14/9/9 17/12/12 12/7/7
f 18/14/14 26/15/15 22/16/16
f 18/14/14 25/17/17 19/18/18
f 19/18/18 21/19/19 24/20/20
f 24/20/20 20/21/21 26/15/15
f 24/20/20 18/14/14 19/18/18
f 25/17/17 23/22/22 19/18/18
f 25/17/17 18/14/14 22/16/16
f 18/14/14 24/20/20 26/15/15
f 27/14/23 35/15/24 31/16/25
f 27/14/23 34/17/26 28/18/27
f 28/18/27 30/19/28 33/20/29
f 33/20/29 29/21/30 35/15/24
f 33/20/29 27/14/23 28/18/27
f 34/17/26 32/22/31 28/18/27
f 34/17/26 27/14/23 31/16/25
f 27/14/23 33/20/29 35/15/24
f 36/14/32 44/15/33 40/16/34
f 36/14/32 43/17/35 37/18/36
f 37/18/36 39/19/37 42/20/38
f 42/20/38 38/21/39 44/15/33
f 42/20/38 36/14/32 37/18/36
f 43/17/35 41/22/40 37/18/36
f 43/17/35 36/14/32 40/16/34
f 36/14/32 42/20/38 44/15/33
f 45/14/41 53/15/42 49/16/43
f 45/14/41 52/17/44 46/18/45
f 46/18/45 48/19/46 51/20/47
f 51/20/47 47/21/48 53/15/42
f 51/20/47 45/14/41 46/18/45
f 52/17/44 50/22/49 46/18/45
f 52/17/44 45/14/41 49/16/43
f 45/14/41 51/20/47 53/15/42
f 54/14/50 62/15/51 58/16/52
f 54/14/50 61/17/53 55/18/54
f 55/18/54 57/19/55 60/20/56
f 60/20/56 56/21/57 62/15/51
f 60/20/56 54/14/50 55/18/54
f 61/17/53 59/22/58 55/18/54
f 61/17/53 54/14/50 58/16/52
f 54/14/50 60/20/56 62/15/51
f 63/14/59 71/15/60 67/16/61
f 63/14/59 70/17/62 64/18/63
f 64/18/63 66/19/64 69/20/65
f 69/20/65 65/21/66 71/15/60
f 69/20/65 63/14/59 64/18/63
f 70/17/62 68/22/67 64/18/63
f 70/17/62 63/14/59 67/16/61
f 63/14/59 69/20/65 71/15/60
f 72/14/68 80/15/69 76/16/70
f 72/14/68 79/17/71 73/18/72
f 73/18/72 75/19/73 78/20/74
f 78/20/74 74/21/75 80/15/69
f 78/20/74 72/14/68 73/18/72
f 79/17/71 77/22/76 73/18/72
f 79/17/71 72/14/68 76/16/70
f 72/14/68 78/20/74 80/15/69
f 81/14/77 89/15/78 85/16/79
f 81/14/77 88/17/80 82/18/81
f 82/18/81 84/19/82 87/20/83
f 87/20/83 83/21/84 89/15/78
f 87/20/83 81/14/77 82/18/81
f 88/17/80 86/22/85 82/18/81
f 88/17/80 81/14/77 85/16/79
f 81/14/77 87/20/83 89/15/78
f 90/14/86 98/15/87 94/16/88
f 90/14/86 97/17/89 91/18/90
f 91/18/90 93/19/91 96/20/92
f 96/20/92 92/21/93 98/15/87
f 96/20/92 90/14/86 91/18/90
f 97/17/89 95/22/94 91/18/90
f 97/17/89 90/14/86 94/16/88
f 90/14/86 96/20/92 98/15/87
f 99/14/95 107/15/96 103/16/97
f 99/14/95 106/17/98 100/18/99
f 100/18/99 102/19/100 105/20/101
f 105/20/101 101/21/102 107/15/96
f 105/20/101 99/14/95 100/18/99
f 106/17/98 104/22/103 100/18/99
f 106/17/98 99/14/95 103/16/97
f 99/14/95 105/20/101 107/15/96
f 108/14/104 116/15/105 112/16/106
f 108/14/104 115/17/107 109/18/108
f 109/18/108 111/19/109 114/20/110
f 114/20/110 110/21/111 116/15/105
f 114/20/110 108/14/104 109/18/108
f 115/17/107 113/22/112 109/18/108
f 115/17/107 108/14/104 112/16/106
f 108/14/104 114/20/110 116/15/105
f 117/14/113 125/15/114 121/16/115
f 117/14/113 124/17/116 118/18/117
f 118/18/117 120/19/118 123/20/119
f 123/20/119 119/21/120 125/15/114
f 123/20/119 117/14/113 118/18/117
f 124/17/116 122/22/121 118/18/117
f 124/17/116 117/14/113 121/16/115
f 117/14/113 123/20/119 125/15/114
f 126/14/122 134/15/123 130/16/124
f 126/14/122 133/17/125 127/18/126
f 127/18/126 129/19/127 132/20/128
f 132/20/128 128/21/129 134/15/123
f 132/20/128 126/14/122 127/18/126
f 133/17/125 131/22/130 127/18/126
f 133/17/125 126/14/122 130/16/124
f 126/14/122 132/20/128 134/15/123
f 135/14/131 143/15/132 139/16/133
f 135/14/131 142/17/134 136/18/135
f 136/18/135 138/19/136 141/20/137
f 141/20/137 137/21/138 143/15/132
f 141/20/137 135/14/131 136/18/135
f 142/17/134 140/22/139 136/18/135
f 142/17/134 135/14/131 139/16/133
f 135/14/131 141/20/137 143/15/132
f 144/14/140 152/15/141 148/16/142
f 144/14/140 151/17/143 145/18/144
f 145/18/144 147/19/145 150/20/146
f 150/20/146 146/21/147 152/15/141
f 150/20/146 144/14/140 145/18/144
f 151/17/143 149/22/148 145/18/144
f 151/17/143 144/14/140 148/16/142
f 144/14/140 150/20/146 152/15/141
f 153/14/149 161/15/150 157/16/151
f 153/14/149 160/17/152 154/18/153
f 154/18/153 156/19/154 159/20/155
f 159/20/155 155/21/156 161/15/150
f 159/20/155 153/14/149 154/18/153
f 160/17/152 158/22/157 154/18/153
f 160/17/152 153/14/149 157/16/151
f 153/14/149 159/20/155 161/15/150
f 162/14/158 170/15/159 166/16/160
f 162/14/158 169/17/161 163/18/162
f 163/18/162 165/19/163 168/20/164
f 168/20/164 164/21/165 170/15/159
f 168/20/164 162/14/158 163/18/162
f 169/17/161 167/22/166 163/18/162
f 169/17/161 162/14/158 166/16/160
f 162/14/158 168/20/164 170/15/159
f 171/14/167 179/15/168 175/16/169
f 171/14/167 178/17/170 172/18/171
f 172/18/171 174/19/172 177/20/173
f 177/20/173 173/21/174 179/15/168
f 177/20/173 171/14/167 172/18/171
f 178/17/170 176/22/175 172/18/171
f 178/17/170 171/14/167 175/16/169
f 171/14/167 177/20/173 179/15/168
f 3/23/176 1/24/176 2/25/176
f 3/23/176 2/25/176 4/26/176
