# Blender3D v247 OBJ File: 
# www.blender3d.org
v 0.255028 0.261875 -0.000000
v 0.078808 0.261875 -0.242546
v -0.206322 0.261875 -0.149902
v -0.206322 0.261875 0.149902
v 0.078808 0.261875 0.242546
v 0.078808 0.125875 0.242546
v 0.236069 0.125875 0.726546
v 0.618037 0.125875 0.449030
v 0.255028 0.125875 -0.000000
v 0.618037 0.125875 -0.449030
v 0.236069 0.125875 -0.726546
v 0.078808 0.125875 -0.242546
v -0.236069 0.125875 -0.726546
v -0.206322 0.125875 -0.149902
v 0.763936 0.125875 -0.000000
v -0.236069 0.125875 0.726546
v -0.618037 0.125875 -0.449030
v -0.763936 0.125875 -0.000000
v -0.206322 0.125875 0.149902
v -0.618037 0.125875 0.449030
v -0.236069 -0.675161 -0.726546
v -0.618037 -0.675161 -0.449030
v -0.763936 -0.675161 0.000000
v -0.618037 -0.675161 0.449030
v 0.236069 -0.675161 -0.726546
v 0.236069 -0.675161 0.726546
v 0.618037 -0.675161 0.449030
v -0.236069 -0.675161 0.726546
v 0.763936 -0.675161 0.000000
v -1.511604 3.126996 -0.040000
v -1.511604 3.126996 0.040000
v -1.511604 3.204051 0.040000
v -1.511604 3.204051 -0.040000
v -1.312870 3.000523 0.040000
v -1.312870 3.330523 0.040000
v -0.104541 3.000523 0.040000
v -0.104541 3.330523 0.040000
v -1.312870 3.000523 -0.040000
v -0.104541 3.000523 -0.040000
v -1.312870 3.330523 -0.040000
v -0.104541 3.330523 -0.040000
v 0.084853 2.730577 0.084853
v 0.084853 2.730577 -0.084853
v 0.121042 2.730506 -0.121043
v 0.121043 2.730506 0.121042
v 0.084853 0.263407 -0.084853
v -0.084853 0.263407 -0.084853
v -0.084853 2.730577 -0.084853
v -0.121043 2.730506 -0.121043
v -0.121043 3.996751 -0.121043
v 0.121042 3.996751 -0.121043
v -0.084853 3.996584 -0.084853
v 0.084853 3.996584 -0.084853
v -0.084853 4.061395 -0.084853
v 0.084853 4.061395 -0.084853
v -0.121043 4.061277 -0.121043
v 0.121043 4.061277 -0.121043
v -0.121043 4.259870 -0.121043
v 0.121043 4.259870 -0.121043
v -0.121042 4.259870 0.121042
v 0.121043 4.259870 0.121042
v 0.121043 3.996751 0.121042
v -0.084853 0.263407 0.084853
v -0.084853 2.730577 0.084853
v -0.121042 2.730506 0.121042
v -0.121042 3.996751 0.121042
v -0.084853 3.996584 0.084853
v -0.084853 4.061395 0.084853
v -0.121042 4.061277 0.121042
v 0.084853 4.061395 0.084853
v 0.121043 4.061277 0.121042
v 0.084853 3.996584 0.084853
v 0.084853 0.263407 0.084853
v 0.618037 -0.675161 -0.449030
v 0.040000 3.606262 -1.521485
v -0.040000 3.606262 -1.521485
v -0.040000 3.683317 -1.521485
v 0.040000 3.683317 -1.521485
v -0.040000 3.479790 -1.322751
v -0.040000 3.809790 -1.322751
v -0.040000 3.479790 -0.114422
v -0.040000 3.809790 -0.114422
v 0.040000 3.479790 -1.322751
v 0.040000 3.479790 -0.114422
v 0.040000 3.809790 -1.322751
v 0.040000 3.809790 -0.114422
v 0.040000 3.606262 1.521484
v 0.040000 3.683318 1.521484
v -0.040000 3.683318 1.521484
v -0.040000 3.606262 1.521484
v -0.040000 3.809790 1.322750
v -0.040000 3.479790 1.322751
v -0.040000 3.809790 0.114421
v -0.040000 3.479790 0.114421
v 0.040000 3.479790 1.322751
v 0.040000 3.479790 0.114421
v 0.040000 3.809790 0.114421
v 0.040000 3.809790 1.322750
vt 0.872628 0.511755
vt 0.872628 0.896844
vt 0.848555 0.896844
vt 0.848555 0.511755
vt 0.972118 0.896844
vt 0.972117 0.511755
vt 0.996190 0.511755
vt 0.996190 0.896844
vt 0.985598 0.960179
vt 0.933988 0.960179
vt 0.933988 0.987361
vt 0.985598 0.987361
vt 0.910757 0.960179
vt 0.859148 0.960179
vt 0.910757 0.987361
vt 0.859148 0.987361
vt 0.749066 0.896844
vt 0.749066 0.511755
vt 0.810425 0.960179
vt 0.787195 0.960179
vt 0.868302 0.015296
vt 0.844228 0.015296
vt 0.844228 0.400385
vt 0.868302 0.400385
vt 0.967791 0.400385
vt 0.991864 0.400385
vt 0.991863 0.015297
vt 0.967791 0.015296
vt 0.981271 0.463720
vt 0.981271 0.490902
vt 0.929661 0.490902
vt 0.929661 0.463720
vt 0.906430 0.463721
vt 0.929661 0.463721
vt 0.854821 0.463720
vt 0.854821 0.490902
vt 0.906430 0.490903
vt 0.744739 0.015296
vt 0.744739 0.400385
vt 0.806099 0.463720
vt 0.782868 0.463720
vt 0.906430 0.490902
vt 0.146843 0.000269
vt 0.194339 0.000269
vt 0.194339 0.691319
vt 0.146843 0.691320
vt 0.099348 0.942755
vt 0.146843 0.942755
vt 0.146843 0.955454
vt 0.099348 0.955454
vt 0.146843 0.994368
vt 0.099348 0.994368
vt 0.051852 0.955455
vt 0.099348 0.955455
vt 0.051852 0.994368
vt 0.637220 0.641532
vt 0.691748 0.641532
vt 0.703376 0.653301
vt 0.625592 0.653301
vt 0.051852 0.942755
vt 0.051852 0.955454
vt 0.625592 0.574576
vt 0.703376 0.574576
vt 0.691748 0.586344
vt 0.637220 0.586345
vt 0.099348 0.691319
vt 0.146843 0.691319
vt 0.099348 0.000269
vt 0.099348 0.691320
vt 0.691748 0.586345
vt 0.004356 0.955455
vt 0.004356 0.994368
vt 0.637220 0.586344
vt 0.004356 0.942755
vt 0.051852 0.691319
vt 0.051852 0.000269
vt 0.194339 0.942755
vt 0.594894 0.650582
vt 0.517110 0.650582
vt 0.517110 0.571857
vt 0.594894 0.571857
vt 0.194339 0.955455
vt 0.194339 0.994368
vt 0.004356 0.691319
vt 0.004356 0.000269
vt 0.602253 0.013067
vt 0.578180 0.013067
vt 0.578180 0.398156
vt 0.602254 0.398156
vt 0.701743 0.398156
vt 0.725815 0.398156
vt 0.725815 0.013067
vt 0.701743 0.013067
vt 0.715223 0.461491
vt 0.715223 0.488673
vt 0.663613 0.488673
vt 0.663613 0.461491
vt 0.640382 0.461491
vt 0.663613 0.461492
vt 0.588773 0.461491
vt 0.588773 0.488673
vt 0.640382 0.488674
vt 0.640382 0.461492
vt 0.478691 0.013067
vt 0.478691 0.398156
vt 0.540051 0.461491
vt 0.516820 0.461491
vt 0.640382 0.488673
vt 0.586510 0.771274
vt 0.516111 0.661755
vt 0.621670 0.661755
vt 0.201038 0.292222
vt 0.201038 0.192578
vt 0.380164 0.192580
vt 0.380164 0.292223
vt 0.404727 0.400247
vt 0.404727 0.297976
vt 0.446689 0.297976
vt 0.446689 0.400247
vt 0.201038 0.392633
vt 0.380164 0.292224
vt 0.380164 0.392635
vt 0.404727 0.507782
vt 0.446689 0.507782
vt 0.446689 0.210979
vt 0.404727 0.210979
vt 0.446689 0.123981
vt 0.404727 0.123981
vt 0.201038 0.493044
vt 0.380164 0.493045
vt 0.201038 0.797911
vt 0.201038 0.701113
vt 0.380164 0.701113
vt 0.380164 0.797911
vt 0.201038 0.595535
vt 0.380164 0.595535
vt 0.201038 0.086999
vt 0.380164 0.087000
vt 0.404726 0.021710
vt 0.446689 0.021710
vt 0.201038 0.898322
vt 0.380164 0.898322
vt 0.201038 0.998733
vt 0.380164 0.998733
vt 0.201038 0.001585
vt 0.380164 0.001585
vt 0.380164 0.086999
vt 0.522762 0.792238
vt 0.430713 0.724551
vt 0.522762 0.792237
vt 0.522762 0.860077
vt 0.398093 0.826157
vt 0.516111 0.990560
vt 0.430713 0.927764
vt 0.625909 0.826157
vt 0.707069 0.724551
vt 0.739688 0.826157
vt 0.707069 0.927764
vt 0.586510 0.881041
vt 0.621670 0.990560
vt 0.509363 0.621132
vt 0.469964 0.676015
vt 0.406216 0.655052
vt 0.406216 0.587212
vt 0.469964 0.566249
vn 0.000000 -1.000000 0.000000
vn 0.000000 1.000000 0.000000
vn 0.000000 0.843652 0.536890
vn 1.000000 0.000000 0.000000
vn 0.000000 -0.843651 0.536892
vn -1.000000 0.000000 0.000000
vn 0.000000 0.000000 1.000000
vn 0.000000 0.843650 -0.536893
vn 0.000000 -0.843652 -0.536890
vn 0.000000 0.000000 -1.000000
vn 0.000000 -0.999995 -0.003268
vn 0.000000 0.999989 -0.004618
vn 0.000000 -0.999998 -0.001963
vn -0.004618 0.999989 0.000000
vn -0.003268 -0.999995 0.000000
vn -1.000000 0.000000 0.000004
vn 0.003268 -0.999995 0.000000
vn 0.004618 0.999989 0.000000
vn 0.001963 -0.999998 0.000000
vn 1.000000 0.000000 -0.000004
vn 0.000000 -0.999995 0.003268
vn 0.000000 0.999989 0.004618
vn 0.000000 -0.999998 0.001963
vn -0.001963 -0.999998 0.000000
vn -0.536890 0.843652 0.000000
vn -0.536893 -0.843650 0.000000
vn 0.255348 0.571245 0.780023
vn -0.247414 0.603229 0.758171
vn 0.245949 0.601123 0.760338
vn 0.806452 0.000000 -0.591266
vn 0.304880 0.000000 -0.952361
vn 0.247902 0.601123 -0.759697
vn 0.645802 0.603229 -0.467940
vn -0.662923 0.571245 0.483902
vn 0.253212 0.564867 0.785333
vn -0.667440 0.567003 0.482650
vn 0.999969 0.000000 -0.004303
vn 0.799127 0.601123 0.001007
vn -0.665090 0.571245 -0.480941
vn -0.665273 0.567003 -0.485641
vn 0.822230 0.569140 0.001831
vn 0.820765 0.571245 -0.001831
vn 0.256722 0.564867 -0.784173
vn 0.251869 0.571245 -0.781152
vn 0.811548 0.000000 0.584246
vn 0.644612 0.603229 0.469588
vn -0.806452 0.000000 0.591266
vn -0.304880 0.000000 0.952361
vn -0.647114 0.601123 0.468886
vn 0.313120 0.000000 0.949705
vn -0.313120 0.000000 -0.949705
vn -0.245460 0.603229 -0.758812
vn -0.999969 0.000000 0.004303
vn -0.797540 0.603229 -0.001007
vn -0.811548 0.000000 -0.584246
vn -0.645894 0.601123 -0.470534
usemtl SignpostMat_normal_si
s off
f 96/1/1 95/2/1 92/3/1
f 96/1/1 92/3/1 94/4/1
f 98/5/2 97/6/2 93/7/2
f 98/5/2 93/7/2 91/8/2
f 88/9/3 98/10/3 91/11/3
f 88/9/3 91/11/3 89/12/3
f 95/2/4 98/5/4 88/10/4
f 95/2/4 88/10/4 87/13/4
f 96/1/4 97/6/4 98/5/4
f 96/1/4 98/5/4 95/2/4
f 95/14/5 87/13/5 90/15/5
f 95/14/5 90/15/5 92/16/5
f 92/3/6 91/17/6 93/18/6
f 92/3/6 93/18/6 94/4/6
f 90/19/6 89/20/6 91/17/6
f 90/19/6 91/17/6 92/3/6
f 87/13/7 88/10/7 89/11/7
f 87/13/7 89/11/7 90/15/7
f 84/21/1 81/22/1 79/23/1
f 84/21/1 79/23/1 83/24/1
f 85/25/2 80/26/2 82/27/2
f 85/25/2 82/27/2 86/28/2
f 78/29/8 77/30/8 80/31/8
f 78/29/8 80/31/8 85/32/8
f 83/24/4 75/33/4 78/34/4
f 83/24/4 78/34/4 85/25/4
f 84/21/4 83/24/4 85/25/4
f 84/21/4 85/25/4 86/28/4
f 83/35/9 79/36/9 76/37/9
f 83/35/9 76/37/9 75/33/9
f 79/23/6 81/22/6 82/38/6
f 79/23/6 82/38/6 80/39/6
f 76/40/6 79/23/6 80/39/6
f 76/40/6 80/39/6 77/41/6
f 75/33/10 76/42/10 77/31/10
f 75/33/10 77/31/10 78/34/10
f 73/43/4 46/44/4 43/45/4
f 73/43/4 43/45/4 42/46/4
f 72/47/4 53/48/4 55/49/4
f 72/47/4 55/49/4 70/50/4
f 71/50/4 57/49/4 59/51/4
f 71/50/4 59/51/4 61/52/4
f 69/53/7 71/54/7 61/52/7
f 69/53/7 61/52/7 60/55/7
f 68/56/11 70/57/11 71/58/11
f 68/56/11 71/58/11 69/59/11
f 67/60/7 72/47/7 70/50/7
f 67/60/7 70/50/7 68/61/7
f 66/62/12 62/63/12 72/64/12
f 66/62/12 72/64/12 67/65/12
f 65/66/7 45/67/7 62/48/7
f 65/66/7 62/48/7 66/47/7
f 64/56/13 42/57/13 45/58/13
f 64/56/13 45/58/13 65/59/13
f 63/68/7 73/43/7 42/46/7
f 63/68/7 42/46/7 64/69/7
f 62/63/14 51/58/14 53/57/14
f 62/63/14 53/57/14 72/64/14
f 70/57/15 55/70/15 57/63/15
f 70/57/15 57/63/15 71/58/15
f 56/71/16 69/61/16 60/55/16
f 56/71/16 60/55/16 58/72/16
f 54/73/17 68/56/17 69/59/17
f 54/73/17 69/59/17 56/62/17
f 52/74/6 67/60/6 54/71/6
f 67/60/6 68/61/6 54/71/6
f 50/59/18 66/62/18 67/73/18
f 50/59/18 67/73/18 52/56/18
f 49/75/16 65/69/16 66/47/16
f 49/75/16 66/47/16 50/60/16
f 48/73/19 64/56/19 65/59/19
f 48/73/19 65/59/19 49/62/19
f 47/76/6 63/68/6 64/69/6
f 47/76/6 64/69/6 48/75/6
f 45/46/20 44/45/20 51/77/20
f 45/46/20 51/77/20 62/48/20
f 59/78/2 58/79/2 60/80/2
f 59/78/2 60/80/2 61/81/2
f 57/49/10 56/82/10 58/83/10
f 57/49/10 58/83/10 59/51/10
f 55/70/21 54/73/21 56/62/21
f 55/70/21 56/62/21 57/63/21
f 53/48/10 52/77/10 54/82/10
f 53/48/10 54/82/10 55/49/10
f 51/58/22 50/59/22 52/56/22
f 51/58/22 52/56/22 53/57/22
f 44/84/10 49/75/10 50/60/10
f 44/84/10 50/60/10 51/74/10
f 43/70/23 48/73/23 49/62/23
f 43/70/23 49/62/23 44/63/23
f 46/85/10 47/76/10 48/75/10
f 46/85/10 48/75/10 43/84/10
f 42/57/24 43/70/24 44/63/24
f 42/57/24 44/63/24 45/58/24
f 39/86/1 36/87/1 34/88/1
f 39/86/1 34/88/1 38/89/1
f 40/90/2 35/91/2 37/92/2
f 40/90/2 37/92/2 41/93/2
f 33/94/25 32/95/25 35/96/25
f 33/94/25 35/96/25 40/97/25
f 38/89/10 30/98/10 33/99/10
f 38/89/10 33/99/10 40/90/10
f 39/86/10 38/89/10 40/90/10
f 39/86/10 40/90/10 41/93/10
f 38/100/26 34/101/26 31/102/26
f 38/100/26 31/102/26 30/103/26
f 34/88/7 36/87/7 37/104/7
f 34/88/7 37/104/7 35/105/7
f 31/106/7 34/88/7 35/105/7
f 31/106/7 35/105/7 32/107/7
f 30/98/6 31/108/6 32/96/6
f 30/98/6 32/96/6 33/97/6
s 1
f 6/109/27 16/110/28 7/111/29
f 74/112/30 25/113/31 11/114/32
f 74/112/30 11/114/32 10/115/33
f 19/116/34 6/117/27 5/118/35
f 19/116/34 5/118/35 4/119/36
f 29/120/37 74/112/30 10/121/33
f 29/120/37 10/121/33 15/122/38
f 14/123/39 19/116/34 4/119/36
f 14/123/39 4/119/36 3/124/40
f 1/125/41 9/126/42 2/127/43
f 9/126/42 12/128/44 2/127/43
f 27/129/45 29/120/37 15/122/38
f 27/129/45 15/122/38 8/130/46
f 24/131/47 28/132/48 16/133/28
f 24/131/47 16/133/28 20/134/49
f 28/132/48 26/135/50 7/136/29
f 28/132/48 7/136/29 16/133/28
f 9/126/42 1/125/41 6/117/27
f 1/125/41 5/118/35 6/117/27
f 26/135/50 27/129/45 8/130/46
f 26/135/50 8/130/46 7/136/29
f 25/113/31 21/137/51 13/138/52
f 25/113/31 13/138/52 11/114/32
f 12/128/44 14/139/39 3/140/40
f 12/128/44 3/140/40 2/127/43
f 23/141/53 24/131/47 20/134/49
f 23/141/53 20/134/49 18/142/54
f 22/143/55 23/141/53 18/142/54
f 22/143/55 18/142/54 17/144/56
f 21/137/51 22/145/55 17/146/56
f 21/137/51 17/146/56 13/147/52
f 16/110/28 6/109/27 19/148/34
f 16/110/28 19/148/34 20/149/49
f 19/150/34 14/151/39 18/152/54
f 19/150/34 18/152/54 20/149/49
f 14/151/39 13/153/52 17/154/56
f 14/151/39 17/154/56 18/152/54
f 9/155/42 8/156/46 15/157/38
f 9/155/42 15/157/38 10/158/33
f 13/153/52 14/151/39 12/159/44
f 13/153/52 12/159/44 11/160/32
f 10/158/33 11/160/32 12/159/44
f 10/158/33 12/159/44 9/155/42
f 6/109/27 7/111/29 8/156/46
f 6/109/27 8/156/46 9/155/42
f 1/161/41 2/162/43 3/163/40
f 1/161/41 3/163/40 4/164/36
f 5/165/35 1/161/41 4/164/36
